<svg version="1" xmlns="http://www.w3.org/2000/svg" width="800" height="800" viewBox="0 0 600.000000 600.000000"><path d="M0 146.4v146.4l8.7-5.2c14.8-8.8 45-24 65.9-33.2 20.2-8.8 47.5-19.4 50.1-19.4 1 0 1.3 1 1.1 3.6l-.3 3.6-14.5 5.2c-31.4 11.4-69.8 28.9-98.2 44.9C2.3 298.2 0 299.9 0 301.7c0 1.3.3 2.3.6 2.3s6.1-3.1 12.8-6.9c19.4-11 43-22.4 65.9-32 32-13.4 50.5-19.5 46.1-15.1-.5.5-6.1 2.6-12.4 4.8-27.7 9.5-68.7 27.7-98.7 44L0 306.5v12.6l3.3-1.7c1.7-.9 8.1-4.3 14-7.6 24.6-13.5 76.9-36 100.5-43.1l8.2-2.5v2.2c0 1.9-1.2 2.6-8.7 5-28.3 9.1-69.6 26.8-100.8 43.1C.1 323 0 323.1 0 326.5v3.4l8-4.5c12.4-6.8 30.5-15.7 47.5-23.4 21.5-9.6 65.3-26 69.6-26 .5 0 .9 2 .9 4.3v4.4l-6.3 1.8c-26 7.7-69 25.2-99.9 40.6L0 337v3.6c0 2 .3 3.4.7 3.2.5-.2 10.7-5.3 22.8-11.3 31-15.6 68.6-30.7 95.5-38.6 7.8-2.3 7.2-2.2 6.8-.4-.2 1.1-7.9 4.1-23.8 9.4-26.9 9-51.1 18.8-75.5 30.4C4.6 343.8.6 346.2.2 348.7c-.3 1.7 3.1.3 21-8.6 30-15 69-30.5 98.6-39.1l6.2-1.9v8.4l-20.3 6.4c-33.1 10.6-75.4 27.8-97.5 39.7L0 358.1v6c0 3.2.3 5.9.7 5.9.4 0 5-2.2 10.2-4.9 25.3-13 61.3-27.3 93.8-37.4 19.3-6 21.3-6.4 21.3-4.5 0 .8-6.6 3.2-16.8 6.2-31.1 9-67.1 22.8-96.5 36.8-11.8 5.7-12.7 6.3-12.7 9 0 1.5.2 2.8.5 2.8s6.3-2.9 13.5-6.5c16.2-8.1 34.9-16.1 55.5-23.7 13.3-4.9 23-8 54.8-17.4 1.3-.4 1.7.1 1.7 2 0 2.2-.7 2.7-5.2 4-46 13-71.7 22.2-106.5 38.4L0 381.4v9.5l14.6-7c28.1-13.4 61.5-25.7 94.8-34.9 18.1-4.9 19.2-4.9 18.4.2-.3 1.9-2.3 2.6-16.9 6.4-30.3 7.7-63.8 19.5-95.9 33.7C1.9 395.1.5 396 .2 398.4c-.3 2.4-.1 2.6 1.5 1.8 15.9-8.4 54.7-23.8 80.8-32 18.2-5.8 48.5-13.6 49.3-12.7 1.3 1.2-2.1 2.4-18.3 6.4-31.8 7.9-63.1 18.3-91 30.2C-1.9 402.6 0 401.3 0 407.6c0 3 .3 5.4.8 5.4.4 0 2-.8 3.7-1.8 5.3-3.3 37-16.1 53.5-21.8 27.5-9.3 78.8-22.5 82.5-21 2.1.8 1.9 3.6-.2 3.6-3.6 0-38.6 8.1-54 12.5-27.7 7.8-58.4 18.9-78.5 28.2C.7 416 0 416.6 0 419.2c0 1.5.2 2.8.4 2.8s3.5-1.6 7.4-3.5c27.9-13.8 78.3-29.9 119.6-38.2l18.8-3.8 3 3.5 2.9 3.5-2.8.7c-1.5.4-9.5 1.9-17.8 3.3-39.3 6.8-87.4 20.9-121.7 35.8-9.5 4-9.8 4.2-9.8 7.4v3.2l8.3-3.6c25.4-11.1 61.9-23.2 89.7-29.7 25.5-5.9 57-11.3 59-10.1 2.3 1.5.5 2.2-7.7 3.3-43.6 5.6-99.1 20.4-138.1 36.7-8.7 3.7-11.2 5.1-11.2 6.6 0 1 .3 1.9.6 1.9s5.7-2.2 11.9-5c22.2-9.8 56.9-20.9 85.5-27.4 14.8-3.4 45.2-8.7 57.1-10.1 5.5-.6 5.7-.5 7.9 2.5 1.2 1.7 2 3.4 1.7 3.7-.3.3-4.3.9-8.9 1.4-46.8 5.1-98.5 17.7-141.3 34.3l-14 5.4-.3 5.7c-.2 4.4 0 5.6 1 5.2 40.1-17.3 91-30.7 139.3-36.6 25.5-3.2 34.1-3.6 34.8-1.8.4 1.2-1.2 1.6-9.6 2.1-47.4 3.1-99.5 13.9-146.2 30.4-18.7 6.7-19.5 7-19.5 9.9 0 2.7 1 2.9 5 .8 4.9-2.5 32.8-12.3 45.7-16 38.5-11.1 78.8-18.1 115.5-20.1 9.6-.5 13.1-.4 14.3.6.8.7 1.5 1.6 1.5 2 0 .5-4.8 1.1-10.7 1.4-29.9 1.8-67.3 6.6-87.3 11.2-3.6.8-8.7 1.9-11.5 2.5-12.3 2.3-49.3 13.5-65.7 19.7L0 463.4v8.6l5.3-2.2c28-11.5 73.8-23.5 108.2-28.3 30.7-4.3 73.2-6.8 76-4.5.8.7 1.5 1.5 1.5 1.9 0 .3-7.1.7-15.8.9-56.9 1.1-119.1 12.3-166.7 30l-8 3-.3 63.6L0 600h600V0H0v146.4zm317.5-2c19.4 3.7 57 10.9 68.1 13.2 6.7 1.3 12.4 2.4 12.6 2.4.3 0 1 1.8 1.7 4 1 3.3.9 4.5-.4 7.1-2.3 4.3-1.1 4.9 1.4.8 2.4-3.9 2.5-4.7 1.1-8.4-.8-2-.7-2.7.5-3.1.8-.4 2.1-.2 2.8.4.6.6 6.1 1.8 12 2.8l10.8 1.9 4.3 5.5c10.5 13.5 21.6 28.3 21.6 29 0 .3-2.2 3.5-5 7-5.3 7-5.8 9.9-.6 3.6 2.7-3.2 3.4-3.5 3.9-2.1 1.4 3.6 1.2 4.6-5 26.1l-3 10.2 5.1 1c2.8.6 12.8 2.7 22.1 4.7 9.4 2 22.4 4.8 29 6.1 6.6 1.4 12.2 2.7 12.5 2.9 1 .6-1 12.4-3.2 19.5-1.1 3.6-3.5 9-5.3 12-4.6 7.6-9.5 17.7-9.5 19.2 0 .7 1.4-1.2 3.2-4.2 1.7-3 5.4-9.3 8.3-14 6.2-10 8.5-16.2 8.5-23 0-6.3 1.5-7.2 2.8-1.7 1.1 4.2.7 107.1-.4 116.3-.5 3.9-1.1 4.6-14.2 14.7-57.3 44.5-77.6 59.7-79.2 59.7-1.2 0-2.9-1.5-4.3-3.8-1.3-2-4.7-7.3-7.4-11.7-2.8-4.4-6-9.6-7-11.5-1-1.9-4.1-6.9-6.8-11.2-20-30.7-23.7-37.3-23-40.5l.7-2.8-2.1 3-2 3.1-22.2 2.4c-21.7 2.3-22.2 2.3-23.3.4-.6-1-3.1-5.7-5.6-10.4-2.6-4.7-7.6-13.7-11.2-20-3.6-6.3-7.7-13.9-9.2-16.8-1.5-3-2.9-5.2-3.2-4.9-1 1-5.4 19-5.4 22.2 0 3.2-6.8 16.7-9.5 19-.7.5-2.3 2.6-3.6 4.5-1.3 1.9-3.1 4.4-4.1 5.4-1 1.1-1.8 2.3-1.8 2.8 0 .4-.7.8-1.5.8-1.9 0-.5-2.8 4.4-8.4 5.6-6.5 13.1-18.9 13.1-21.8 0-1.4.6-5.3 1.4-8.5.7-3.2 2.2-9.4 3.2-13.8 1.3-5.7 2.5-8.5 4.1-9.8 1.3-1 2.8-2.8 3.5-4 1-2.1 1-2.1-.8-.6-3.5 3-6.3 3.3-8.7.9-1.2-1.2-5.1-4-8.7-6.3-10.8-6.7-29-21.7-29-23.8 0-2.7 1.2-2.3 3.9 1.4 1.4 1.8 7.4 7 13.5 11.5s12.9 9.7 15.1 11.5l3.9 3.2-2.1-3.5c-1.1-1.9-8.7-15.7-16.8-30.5-8.1-14.9-15.6-28.4-16.7-30.2l-1.9-3.2-5 3.2c-2.8 1.8-5.8 3.7-6.7 4.2-.9.6-3.6 2.5-6 4.2l-4.4 3.2 5.9 5.8c3.2 3.2 8.2 8 11.1 10.7 2.9 2.6 5.1 5 4.8 5.3-.8.8-15.8-11.1-20.8-16.5l-4.6-5.1 1.4-9.8c1.4-10.2 1.8-16 .9-15.1-.9.9-3.5 18.1-3.5 23.5 0 4.4-.4 5.4-2.2 6.4-1.3.7-8.1 5.7-15.3 11.2-7.1 5.5-17 13.1-22 16.8-4.9 3.8-17.5 13.3-28 21.3-10.4 8-19.3 14.2-19.7 13.8-.4-.4-.8-26.9-1-58.9l-.3-58.2 18-9.9 18-9.9.3 8.4c.2 7.3-.1 9.2-2.3 13.8-1.4 3-2.5 6.1-2.5 6.9 0 1.7 1.7 9.4 3.1 13.6l.7 2.5.1-2.5c0-1.4-.6-4.9-1.4-7.9-1.3-5.2-1.3-5.6 1.2-11.5 1.8-4.4 2.7-8.7 3.2-15.5l.6-9.3 11.5-6.3c6.3-3.4 22-11.9 34.9-18.9 12.8-7 23.5-12.5 23.8-12.2.2.2-.5 2.3-1.7 4.5-1.7 3.4-2 5.6-1.8 11.9l.3 7.7 1.3-7.5c1.4-7.4 4.5-16.3 6.7-18.8 1.7-1.9 54.3-15.4 57-14.6.6.1 4.6.9 9 1.8zM258 392.6c-4.1 1.4-9.5 2.7-11.9 2.9-2.7.3-4.8 1.1-5.6 2.2-.7 1-1.7 1.4-2.2 1-1.6-1.7 4.6-5.7 9-5.7 2.3-.1 6.5-.7 9.2-1.5 8.4-2.3 9.4-1.6 1.5 1.1zm157.3 66.1c-.7.2-1.9.2-2.5 0-.7-.3-.2-.5 1.2-.5s1.9.2 1.3.5zm-13 1c-.7.2-1.9.2-2.5 0-.7-.3-.2-.5 1.2-.5s1.9.2 1.3.5zm-11.6.9c-.3.3-1.2.4-1.9.1-.8-.3-.5-.6.6-.6 1.1-.1 1.7.2 1.3.5zm-88.9 10.1c-1 .2-2.6.2-3.5 0-1-.3-.2-.5 1.7-.5s2.7.2 1.8.5zm-12.5 1c-.7.2-1.9.2-2.5 0-.7-.3-.2-.5 1.2-.5s1.9.2 1.3.5z"/><path d="M442.3 216.2c-2.1 2.9-4.7 8.8-4.1 9.4.7.6 3-3.4 4.8-8.1 1-2.7.8-3.2-.7-1.3zM434.9 250.5c-.5 6-.4 7.3.7 6.3.3-.3.4-3.2.2-6.4l-.3-5.9-.6 6zM435.2 260c0 1.4.2 1.9.5 1.2.2-.6.2-1.8 0-2.5-.3-.6-.5-.1-.5 1.3zM372.8 293.6c-3.8 2-3.6 2.8.2.9 1.7-.9 3-1.8 3-2 0-.7-.1-.6-3.2 1.1zM324.7 315.5c6.3 5.8 7.7 5.8 2 0-2.5-2.5-5-4.5-5.7-4.5-.7 0 1 2 3.7 4.5zM333.5 318c-.3.6.1.7.9.4 1.8-.7 2.1-1.4.7-1.4-.6 0-1.3.4-1.6 1zM473.2 363c-7.8 15.7-13.4 28.2-12.8 28.8.3.3 1.3-1.2 2.2-3.4 2.8-6.9 6.4-14.8 8.1-17.9 4.7-8.5 8.3-16.1 8.1-17-.2-.5-2.7 3.7-5.6 9.5zM386.3 359.7c-2.5.9-1.3 1.9 2.2 1.9 1.9 0 3.3-.1 3.2-.2-1.5-1.1-4.5-2-5.4-1.7zM380 362.8c-1.4 1.1-2.3 3.2-2.6 6.2l-.5 4.5 1.5-3.8c.8-2.2 2.4-5 3.7-6.3 2.6-2.8 1.2-3.2-2.1-.6z"/></svg>